<svg width="20" height="20" viewBox="0 0 20 20" fill="none" xmlns="http://www.w3.org/2000/svg"><path d="M15.933 4.2H2.067C1.477 4.2 1 4.678 1 5.267V13.8c0 .59.478 1.067 1.067 1.067h13.866c.59 0 1.067-.478 1.067-1.067V5.267c0-.59-.478-1.067-1.067-1.067zM12.2 4.2a3.2 3.2 0 1 0-6.4 0M1 8.467h6.933M10.067 8.467h6.934" stroke="#6C6CFF" stroke-linecap="round" stroke-linejoin="round"></path><path d="M9 10.066a1.067 1.067 0 0 1-1.066-1.067V7.933a1.067 1.067 0 1 1 2.133 0v1.066A1.067 1.067 0 0 1 9 10.066z" stroke="#6C6CFF" stroke-linecap="round" stroke-linejoin="round"></path></svg>
