<svg xmlns="http://www.w3.org/2000/svg" width="73" height="70" fill="none" viewBox="0 0 73 70"><path fill="#6C6CFF" d="M2.667 2.667C.133 5.2 0 7.067 0 34.667s.133 29.466 2.667 32c2.533 2.533 4.4 2.666 32 2.666s32.466-.133 35-2.666c2.533-2.534 2.666-4.4 2.666-32s-.133-29.467-2.666-32C67.133.133 62.267 0 34.667 0S5.2.133 2.667 2.667Zm16 32v30.666h-4.134c-2.266 0-5.2-.666-6.666-1.333-2.4-1.333-2.534-3.067-2.534-29.333C5.333 3.733 5.2 4.133 14.4 4h4.267v30.667ZM50.667 4v61.333l-26-.666-.4-28.667c-.134-15.733 0-29.333.4-30.4.4-1.2 3.2-1.6 10.266-1.333L44.5 4h6.167Zm13.8 1.333C66.867 6.667 67 8.4 67 34.667c0 26.266-.133 28-2.533 29.333-1.467.667-4.4 1.333-6.667 1.333h-7.133V4H57.8c2.267 0 5.2.667 6.667 1.333Z"/></svg>