<svg width="18" height="18" viewBox="0 0 18 18" fill="none" xmlns="http://www.w3.org/2000/svg" class="jsx-1475715785 menu-item-title-icon outline" style="--icon-color:#6C6CFF;"><path d="M2.475 9.39l.324-.818-.755-1.91a.625.625 0 0 1-.011-.43.65.65 0 0 1 .27-.341l1.775-1.118.554-1.973a.646.646 0 0 1 .253-.354.688.688 0 0 1 .427-.122l2.117.104 1.65-1.285a.686.686 0 0 1 .841 0l1.65 1.285 2.118-.102a.688.688 0 0 1 .427.123.647.647 0 0 1 .253.353l.554 1.973 1.774 1.118a.65.65 0 0 1 .271.341.625.625 0 0 1-.01.43l-.755 1.91.754 1.91c.055.138.059.29.011.43a.65.65 0 0 1-.27.341l-1.775 1.114-.557 1.974a.646.646 0 0 1-.253.354.687.687 0 0 1-.427.123l-2.117-.102L9.918 16M1 15l1 2" stroke="#6C6CFF" stroke-linecap="round" stroke-linejoin="round"></path><path d="M12 13.055L1.74 16 1 14.931 7.811 7 12 13.055z" stroke="#6C6CFF" stroke-linecap="round" stroke-linejoin="round"></path><path d="M4.5 15.5l.242.694c.123.196.286.365.478.497a1.756 1.756 0 0 0 1.341.276c.231-.045.45-.136.644-.267.396-.277.668-.69.76-1.157a1.817 1.817 0 0 0-.263-1.348" stroke="#6C6CFF" stroke-linecap="round" stroke-linejoin="round"></path></svg>
