<svg width="16" height="20" viewBox="0 0 16 20" fill="none" xmlns="http://www.w3.org/2000/svg" class="jsx-1475715785 menu-item-title-icon outline" style="--icon-color:#6C6CFF;"><path d="M14.997 17.367a1.169 1.169 0 0 1-1.169 1.17H2.17A1.17 1.17 0 0 1 1 17.367V2.17A1.17 1.17 0 0 1 2.17 1h7.082c.31 0 .607.123.826.342l4.577 4.577c.219.219.342.516.342.826v10.622z" stroke="#6C6CFF" stroke-linecap="round" stroke-linejoin="round"></path><path d="M15 6.846h-4.677a1.169 1.169 0 0 1-1.169-1.17V1M4.206 10.49h7.233m-7.233 3.843h4.64" stroke="#6C6CFF" stroke-linecap="round" stroke-linejoin="round"></path></svg>
