<svg width="18" height="18" viewBox="0 0 18 18" fill="none" xmlns="http://www.w3.org/2000/svg" class="jsx-1475715785 menu-item-title-icon outline" style="--icon-color:#6C6CFF;"><path d="M3.5 13H3a2 2 0 0 1-2-2V9a2 2 0 0 1 2-2h.5a.5.5 0 0 1 .5.5v5a.5.5 0 0 1-.5.5zM15 13h-.5a.5.5 0 0 1-.5-.5v-5a.5.5 0 0 1 .5-.5h.5a2 2 0 0 1 2 2v2a2 2 0 0 1-2 2zM3 7a6 6 0 0 1 6-6 6 6 0 0 1 6 6M11 16h1.714c.606 0 1.188-.253 1.617-.703.428-.45.669-1.06.669-1.697V13" stroke="#6C6CFF" stroke-linecap="round" stroke-linejoin="round"></path><path d="M10 17H9a1 1 0 0 1 0-2h1a1 1 0 0 1 0 2z" stroke="#6C6CFF" stroke-linecap="round" stroke-linejoin="round"></path></svg>
