<svg width="18" height="18" viewBox="0 0 18 18" fill="none" xmlns="http://www.w3.org/2000/svg" class="jsx-1475715785 menu-item-title-icon outline" style="--icon-color:#6C6CFF;"><path d="M15.933 1H2.067C1.477 1 1 1.478 1 2.067v13.866C1 16.523 1.478 17 2.067 17h13.866c.59 0 1.067-.478 1.067-1.067V2.067C17 1.477 16.522 1 15.933 1z" stroke="#6C6CFF" stroke-linecap="round" stroke-linejoin="round"></path><path d="M10.067 3.133h-6.4a.533.533 0 0 0-.533.534v6.4c0 .294.239.533.533.533h6.4a.533.533 0 0 0 .534-.533v-6.4a.533.533 0 0 0-.534-.534zM13.8 12.733h-3.2a.533.533 0 0 0-.534.534v1.066c0 .295.24.534.534.534h3.2a.533.533 0 0 0 .533-.534v-1.066a.533.533 0 0 0-.533-.534zM3.667 14.867H5.8M3.667 12.733h3.2M3.29 3.29l7.154 7.154M10.444 3.29L3.29 10.444M14.333 10.067v-6.4" stroke="#6C6CFF" stroke-linecap="round" stroke-linejoin="round"></path></svg>
