<svg width="20" height="20" viewBox="0 0 20 20" fill="none" xmlns="http://www.w3.org/2000/svg"><g clip-path="url(#a)"><path stroke="#6C6CFF" d="M5.5 4.7c0-1.7 1.3-3 3-3s3 1.3 3 3h1.7c1.2 0 2.1.9 2.1 2.1v1.7c1.7 0 3 1.3 3 3s-1.3 3-3 3v1.7c0 1.2-.9 2.1-2.1 2.1H3.8c-1.2 0-2.1-.9-2.1-2.1v-2.5c0-.2.1-.4.3-.6.2-.1.4-.2.6-.1.2.1.3.1.5.1.9 0 1.6-.7 1.6-1.6S4 10 3.2 10h-.6c-.2.1-.5 0-.6-.1-.2-.1-.3-.3-.3-.5V6.8c0-1.2.9-2.1 2.1-2.1h1.7z"></path></g><defs><clipPath id="a"><path fill="#fff" d="M0 0h20v20H0z"></path></clipPath></defs></svg>
