<svg width="18" height="18" viewBox="0 0 18 18" fill="none" xmlns="http://www.w3.org/2000/svg" class="jsx-1475715785 menu-item-title-icon outline" style="--icon-color:#6C6CFF;"><path d="M9.534 13.8h-4.8a1.067 1.067 0 0 1-1.067-1.067V4.614" stroke="#6C6CFF" stroke-linecap="round" stroke-linejoin="round"></path><path d="M10.473 3.133L7.947 1 1 6.867M15.934 8.467h-3.2c-.59 0-1.067.477-1.067 1.066v6.4c0 .59.478 1.067 1.067 1.067h3.2c.589 0 1.066-.478 1.066-1.067v-6.4c0-.589-.477-1.066-1.066-1.066zM11.667 14.5H17M13.142 6.333a1.599 1.599 0 0 1 2.384 0M11.667 4.787a3.734 3.734 0 0 1 5.333 0" stroke="#6C6CFF" stroke-linecap="round" stroke-linejoin="round"></path></svg>
