<svg width="18" height="18" viewBox="0 0 18 18" fill="none" xmlns="http://www.w3.org/2000/svg" class="jsx-1475715785 menu-item-title-icon outline" style="--icon-color:#6C6CFF;"><path d="M3.635 16.548a1.543 1.543 0 1 1-2.183-2.184L5.817 10 8 12.184l-4.365 4.364zM13 5l-6 6M14.965 4.663a1.15 1.15 0 1 1-1.628-1.629L15.372 1 17 2.627l-2.035 2.036zM8 6.041l-1.69-1.57c.197-.463.244-.97.134-1.459a2.513 2.513 0 0 0-.75-1.288A2.83 2.83 0 0 0 4.04 1c.265.392.379.856.322 1.316a1.99 1.99 0 0 1-.632 1.216 2.28 2.28 0 0 1-1.31.587A2.348 2.348 0 0 1 1 3.822c.044.39.185.766.412 1.098.227.332.534.61.896.814a2.942 2.942 0 0 0 2.434.189L5.904 7M11 12.052l1.181 1.273a2.89 2.89 0 0 0-.054 1.8c.174.59.53 1.096 1.01 1.435.48.339 1.053.49 1.624.426a2.426 2.426 0 0 0 1.508-.774 2.784 2.784 0 0 0 .718-1.627 2.858 2.858 0 0 0-.395-1.751 2.526 2.526 0 0 0-1.33-1.09 2.325 2.325 0 0 0-1.67.058L11.923 10" stroke="#6C6CFF" stroke-linecap="round" stroke-linejoin="round"></path><path d="M14.146 14.147a.5.5 0 1 1 .707.706.5.5 0 0 1-.707-.706" stroke="#6C6CFF" stroke-linecap="round" stroke-linejoin="round"></path></svg>
