<svg width="90" height="90" viewBox="0 0 90 90" fill="none" xmlns="http://www.w3.org/2000/svg" class="jsx-3692625068"><path d="M44.994 19.586c8.28 0 9.252.037 12.525.185 3.027.135 4.664.64 5.759 1.07 1.452.566 2.485 1.23 3.568 2.313 1.083 1.083 1.76 2.116 2.313 3.568.418 1.095.935 2.732 1.07 5.759.148 3.273.185 4.244.185 12.525 0 8.28-.037 9.253-.185 12.526-.135 3.026-.64 4.663-1.07 5.758-.566 1.452-1.23 2.485-2.313 3.568-1.083 1.083-2.117 1.76-3.568 2.313-1.095.419-2.732.935-5.759 1.07-3.273.148-4.244.185-12.525.185-8.28 0-9.253-.037-12.526-.184-3.026-.136-4.663-.64-5.758-1.07-1.452-.567-2.485-1.231-3.568-2.314-1.083-1.083-1.76-2.116-2.313-3.568-.419-1.095-.935-2.732-1.07-5.758-.148-3.273-.185-4.245-.185-12.526 0-8.28.037-9.252.184-12.525.136-3.027.64-4.664 1.07-5.759.567-1.452 1.231-2.485 2.314-3.568 1.083-1.083 2.116-1.76 3.568-2.313 1.095-.418 2.732-.935 5.758-1.07 3.273-.16 4.257-.185 12.526-.185zm0-5.586c-8.416 0-9.474.037-12.784.185-3.297.147-5.55.676-7.518 1.44-2.042.787-3.765 1.857-5.487 3.58-1.723 1.722-2.781 3.457-3.58 5.487-.764 1.969-1.293 4.22-1.44 7.53C14.037 35.52 14 36.578 14 44.994s.037 9.474.185 12.784c.147 3.297.676 5.549 1.44 7.53.787 2.042 1.857 3.765 3.58 5.487 1.722 1.723 3.457 2.781 5.487 3.58 1.969.764 4.22 1.293 7.53 1.44 3.31.148 4.356.185 12.784.185s9.474-.037 12.784-.185c3.297-.147 5.55-.676 7.53-1.44 2.043-.787 3.765-1.857 5.488-3.58 1.722-1.722 2.78-3.457 3.58-5.487.763-1.969 1.292-4.22 1.44-7.53.147-3.31.184-4.356.184-12.784s-.037-9.474-.184-12.784c-.148-3.297-.677-5.55-1.44-7.53-.787-2.043-1.858-3.765-3.58-5.488-1.723-1.722-3.458-2.78-5.488-3.58-1.968-.763-4.22-1.292-7.53-1.44-3.322-.135-4.38-.172-12.796-.172z" fill="#535768"></path><path d="M44.995 29.085c-8.785 0-15.922 7.124-15.922 15.921s7.124 15.922 15.922 15.922c8.797 0 15.921-7.124 15.921-15.922 0-8.797-7.124-15.921-15.921-15.921zm0 26.244c-5.71 0-10.336-4.626-10.336-10.335 0-5.71 4.627-10.336 10.336-10.336 5.709 0 10.335 4.627 10.335 10.336 0 5.709-4.626 10.335-10.335 10.335zM61.544 32.16a3.716 3.716 0 1 0 0-7.43 3.716 3.716 0 0 0 0 7.43z" fill="#535768"></path></svg>