<svg width="90" height="90" viewBox="0 0 90 90" fill="none" xmlns="http://www.w3.org/2000/svg" class="jsx-3692625068"><path fill-rule="evenodd" clip-rule="evenodd" d="M29.647 18.724C29.562 14.907 26.82 12 22.366 12S15 14.907 15 18.724c0 3.738 2.826 6.729 7.197 6.729h.083c4.54 0 7.367-2.991 7.367-6.729zm-.858 12.041h-13.02v38.929h13.02V30.765zm31.962-.913c8.567 0 14.99 5.565 14.99 17.522v22.321H62.72V48.868c0-5.231-1.883-8.8-6.596-8.8-3.597 0-5.74 2.406-6.68 4.73-.345.833-.43 1.994-.43 3.157v21.741h-13.02s.171-35.276 0-38.929h13.02v5.514c1.728-2.65 4.823-6.429 11.736-6.429z" fill="#535768"></path></svg>