<svg width="90" height="90" viewBox="0 0 90 90" fill="none" xmlns="http://www.w3.org/2000/svg" class="jsx-3692625068"><path d="M43.632 32.252l.141 2.317-2.353-.284c-8.567-1.087-16.052-4.776-22.406-10.971l-3.107-3.074-.8 2.27c-1.695 5.06-.612 10.404 2.918 13.998 1.883 1.986 1.46 2.27-1.789 1.088-1.13-.378-2.118-.662-2.212-.52-.33.33.8 4.634 1.695 6.337 1.223 2.364 3.718 4.682 6.448 6.053l2.307 1.088-2.73.047c-2.636 0-2.73.047-2.448 1.04.942 3.075 4.66 6.338 8.803 7.756l2.918.994-2.542 1.513c-3.766 2.175-8.19 3.405-12.615 3.5-2.118.047-3.86.236-3.86.378 0 .473 5.743 3.121 9.085 4.161 10.026 3.074 21.935 1.75 30.879-3.5 6.354-3.735 12.709-11.16 15.674-18.348 1.6-3.831 3.201-10.83 3.201-14.188 0-2.175.142-2.459 2.778-5.06 1.553-1.513 3.012-3.169 3.295-3.642.47-.898.423-.898-1.977-.094-4.002 1.419-4.566 1.23-2.59-.899 1.46-1.513 3.201-4.256 3.201-5.06 0-.142-.706.095-1.506.52-.847.473-2.73 1.183-4.142 1.608l-2.542.804-2.306-1.56c-1.271-.852-3.06-1.797-4.002-2.081-2.4-.662-6.072-.568-8.237.189-5.884 2.128-9.603 7.614-9.179 13.62z" fill="#535768"></path></svg>