<svg width="90" height="90" viewBox="0 0 90 90" fill="none" xmlns="http://www.w3.org/2000/svg" class="jsx-3692625068"><path d="M83.82 24.928a10.211 10.211 0 0 0-7.184-7.183C70.26 16 44.75 16 44.75 16s-25.51 0-31.888 1.678c-3.423.94-6.243 3.76-7.183 7.25C4 31.306 4 44.532 4 44.532s0 13.292 1.678 19.602a10.211 10.211 0 0 0 7.183 7.184c6.445 1.745 31.888 1.745 31.888 1.745s25.51 0 31.887-1.678A10.211 10.211 0 0 0 83.82 64.2c1.678-6.378 1.678-19.603 1.678-19.603s.067-13.292-1.678-19.67zm-47.194 31.82V32.314L57.84 44.531 36.626 56.749z" fill="#535768"></path></svg>