<svg width="20" height="20" viewBox="0 0 20 20" fill="none" xmlns="http://www.w3.org/2000/svg"><path d="M12.13 12.826a.696.696 0 0 0-.695.696V17h-9.74A.696.696 0 0 1 1 16.304V3.087a.696.696 0 0 1 .696-.696h13.217a.696.696 0 0 1 .696.696v9.74H12.13zM15.608 12.826L11.435 17M3.087 1v3.13M6.565 1v3.13M10.044 1v3.13M13.521 1v3.13" stroke="#6C6CFF" stroke-linecap="round" stroke-linejoin="round"></path><path d="M6.565 5.87L4.478 7.957 3.435 6.913M6.565 9.696l-2.087 2.087-1.043-1.044M7.956 7.261h4.522M7.956 10.739h4.522" stroke="#6C6CFF" stroke-linecap="round" stroke-linejoin="round"></path></svg>
