<svg width="20" height="18" viewBox="0 0 20 18" fill="none" xmlns="http://www.w3.org/2000/svg" class="jsx-1475715785 menu-item-title-icon outline" style="--icon-color:#6C6CFF;"><path d="M2.2 17c-.318 0-.623-.13-.849-.36A1.247 1.247 0 0 1 1 15.77V2.324c.001-.351.138-.687.38-.936A1.28 1.28 0 0 1 2.292 1h15.422c.341.001.667.14.908.387S19 1.97 19 2.32v13.356a1.347 1.347 0 0 1-.38.936 1.28 1.28 0 0 1-.912.389H2.2zM19 5H1" stroke="#6C6CFF" stroke-linecap="round" stroke-linejoin="round"></path><path d="M13.6 8.385l2.4 2.461-2.4 2.462M6.4 8.385L4 10.846l2.4 2.462M11.2 8.385l-2.4 4.923" stroke="#6C6CFF" stroke-linecap="round" stroke-linejoin="round"></path></svg>
