<svg width="20" height="20" viewBox="0 0 20 20" fill="none" xmlns="http://www.w3.org/2000/svg" class="jsx-1475715785 menu-item-title-icon outline" style="--icon-color:#6C6CFF;"><path d="M1 14.203a5.404 5.404 0 0 1 7.522-4.968M3.1 4.3a3.3 3.3 0 1 0 6.602 0 3.3 3.3 0 0 0-6.602 0zM13.003 13.603a1.2 1.2 0 1 0 2.4 0 1.2 1.2 0 0 0-2.4 0z" stroke="#6C6CFF" stroke-linecap="round" stroke-linejoin="round"></path><path d="M15.222 8.962l.354 1.162a.796.796 0 0 0 .94.545l1.177-.273a1.072 1.072 0 0 1 1.02 1.775l-.825.89a.8.8 0 0 0 0 1.089l.825.889a1.071 1.071 0 0 1-1.02 1.775l-1.178-.273a.795.795 0 0 0-.94.545l-.353 1.158a1.064 1.064 0 0 1-2.039 0l-.353-1.163a.795.795 0 0 0-.94-.545l-1.178.273a1.07 1.07 0 0 1-1.02-1.775l.825-.889a.8.8 0 0 0 0-1.09l-.825-.889a1.072 1.072 0 0 1 1.02-1.774l1.178.272a.795.795 0 0 0 .94-.544l.353-1.163a1.064 1.064 0 0 1 2.04.005z" stroke="#6C6CFF" stroke-linecap="round" stroke-linejoin="round"></path></svg>
