<svg width="18" height="21" viewBox="0 0 18 21" fill="none" xmlns="http://www.w3.org/2000/svg" class="jsx-1475715785 menu-item-title-icon outline" style="--icon-color:#6C6CFF;"><path d="M1 17.25a2.5 2.5 0 1 0 5 0 2.5 2.5 0 0 0-5 0z" stroke="#6C6CFF" stroke-linecap="round" stroke-linejoin="round"></path><path d="M5.665 18.5h8.567a1.249 1.249 0 0 1 .884.366l.884.884M2.25 1H3.5a1.25 1.25 0 0 1 1.25 1.25v12.833M9.75 16H16a1.25 1.25 0 0 0 1.25-1.25v-5A1.25 1.25 0 0 0 16 8.5H8.5v6.25A1.25 1.25 0 0 0 9.75 16zM8.5 8.5h6.25V3.143a.893.893 0 0 0-.893-.893H9.393a.892.892 0 0 0-.893.893V8.5zM13.5 13.5h1.25M11 6h1.25" stroke="#6C6CFF" stroke-linecap="round" stroke-linejoin="round"></path></svg>
